<?xml version="1.0" encoding="UTF-8" standalone="no"?>
<!-- Created with Inkscape (http://www.inkscape.org/) -->

<svg
   xmlns:dc="http://purl.org/dc/elements/1.1/"
   xmlns:cc="http://creativecommons.org/ns#"
   xmlns:rdf="http://www.w3.org/1999/02/22-rdf-syntax-ns#"
   xmlns:svg="http://www.w3.org/2000/svg"
   xmlns="http://www.w3.org/2000/svg"
   xmlns:sodipodi="http://sodipodi.sourceforge.net/DTD/sodipodi-0.dtd"
   xmlns:inkscape="http://www.inkscape.org/namespaces/inkscape"
   width="210mm"
   height="297mm"
   viewBox="0 0 210 297"
   version="1.1"
   id="svg3744"
   inkscape:version="0.92.3 (2405546, 2018-03-11)"
   sodipodi:docname="Japanese_English.svg">
  <defs
     id="defs3738" />
  <sodipodi:namedview
     id="base"
     pagecolor="#ffffff"
     bordercolor="#666666"
     borderopacity="1.0"
     inkscape:pageopacity="0.0"
     inkscape:pageshadow="2"
     inkscape:zoom="0.35"
     inkscape:cx="400"
     inkscape:cy="560"
     inkscape:document-units="mm"
     inkscape:current-layer="layer1"
     showgrid="false"
     inkscape:window-width="1920"
     inkscape:window-height="1017"
     inkscape:window-x="1912"
     inkscape:window-y="57"
     inkscape:window-maximized="1" />
  <metadata
     id="metadata3741">
    <rdf:RDF>
      <cc:Work
         rdf:about="">
        <dc:format>image/svg+xml</dc:format>
        <dc:type
           rdf:resource="http://purl.org/dc/dcmitype/StillImage" />
        <dc:title></dc:title>
      </cc:Work>
    </rdf:RDF>
  </metadata>
  <g
     inkscape:label="Layer 1"
     inkscape:groupmode="layer"
     id="layer1">
    <path
       style="fill:#8d898c;stroke-width:1.01673698"
       d="m 3.5151828,153.58271 c 0,-10.75241 0.1533237,-11.69247 1.9052908,-11.69247 1.2630479,0 3.7477535,2.80934 7.3713474,8.33442 l 5.466054,8.33446 0.295127,-8.33446 c 0.26592,-7.49877 0.495065,-8.33442 2.287686,-8.33442 1.863137,0 1.99233,0.75826 1.99233,11.69247 0,10.6984 -0.159858,11.6925 -1.88085,11.6925 -1.229615,0 -3.957915,-3.08034 -7.879709,-8.89644 l -5.9988577,-8.89648 -0.2935876,8.89648 c -0.2309512,6.99072 -0.6119635,8.89644 -1.7792865,8.89644 -1.2167419,0 -1.4855054,-2.11547 -1.4855054,-11.6925 z m 23.3849632,3.05022 c 0,-7.00417 0.288977,-8.64227 1.525086,-8.64227 1.236031,0 1.525124,1.6381 1.525124,8.64227 0,7.00421 -0.288977,8.64228 -1.525124,8.64228 -1.236032,0 -1.525086,-1.63807 -1.525086,-8.64228 z m 7.117143,-3.05022 c 0,-9.71547 0.257847,-11.69247 1.525125,-11.69247 1.066113,0 1.525093,1.07455 1.525093,3.57059 0,3.56957 0.0011,3.57042 3.892312,2.94818 5.807981,-0.92872 7.2918,1.06989 7.2918,9.82168 0,5.58394 -0.316254,7.04452 -1.525125,7.04452 -1.19837,0 -1.525077,-1.40817 -1.525077,-6.57303 0,-5.50705 -0.325878,-6.74749 -2.010211,-7.64882 -3.459115,-1.85126 -6.123699,1.90375 -6.123699,8.62977 0,4.2929 -0.354309,5.59208 -1.525093,5.59208 -1.267278,0 -1.525125,-1.97701 -1.525125,-11.6925 z m 19.780172,9.19687 c -7.458162,-7.45816 2.693097,-19.46125 10.863468,-12.84528 1.90338,1.54122 2.400316,2.92812 2.400316,6.69863 0,3.77049 -0.496936,5.1574 -2.400316,6.69863 -3.341601,2.70586 -7.833862,2.47763 -10.863468,-0.55198 z m 9.816618,-3.38942 c 2.133982,-5.61285 -2.669087,-10.81839 -7.111151,-7.70705 -1.470051,1.02968 -2.150888,2.5965 -2.150888,4.94982 0,6.22985 7.13425,8.35367 9.262039,2.75723 z m 7.005749,-2.57759 v -8.46261 l 5.496603,-0.14452 c 6.954641,-0.18292 7.851776,0.86874 8.502784,9.96757 0.421819,5.89571 0.245932,7.10231 -1.035098,7.10231 -1.180082,0 -1.643369,-1.5717 -1.968548,-6.67838 -0.455094,-7.14735 -1.702849,-8.93325 -5.312881,-7.60425 -1.815874,0.66849 -2.16794,1.7621 -2.42491,7.53232 -0.226735,5.09038 -0.664273,6.75031 -1.779284,6.75031 -1.175286,0 -1.478666,-1.73629 -1.478666,-8.46262 z m 27.4519,-0.17983 c 0,-5.08366 0.418666,-8.64228 1.016729,-8.64228 0.559196,0 1.016763,0.47366 1.016763,1.05254 0,0.72553 0.61095,0.72553 1.96661,0 2.82137,-1.50997 5.77597,-1.29855 7.61974,0.54522 2.24589,2.24587 2.30813,15.68679 0.0727,15.68679 -1.19837,0 -1.52513,-1.40815 -1.52513,-6.573 0,-5.25586 -0.36198,-6.7667 -1.80552,-7.53933 -3.65207,-1.95455 -5.31161,0.40561 -5.31161,7.55407 0,5.15172 -0.32703,6.55826 -1.525094,6.55826 -1.236067,0 -1.525125,-1.63807 -1.525125,-8.64227 z m 19.176452,6.69863 c -3.4414,-2.78668 -3.4414,-10.61058 0,-13.39726 5.49558,-4.45003 13.35914,-0.50702 13.35914,6.69863 0,7.20564 -7.86356,11.14864 -13.35914,6.69863 z m 9.32041,-3.19282 c 2.5968,-4.85213 -0.61477,-10.56851 -5.25569,-9.35484 -4.35219,1.13811 -4.7241,9.81351 -0.48819,11.38856 2.67669,0.99527 4.46094,0.36353 5.74388,-2.03372 z m 17.2563,3.10297 c -2.41407,-2.41408 -2.62066,-4.06693 -0.50836,-4.06693 0.83881,0 1.52509,0.44141 1.52509,0.98095 0,1.89733 3.93051,3.23054 6.10042,2.06925 3.14931,-1.68544 2.45872,-2.74555 -2.96148,-4.54585 -2.74721,-0.91247 -5.26197,-2.35498 -5.58838,-3.20558 -1.56632,-4.08174 4.24095,-7.67566 9.44534,-5.84538 2.95741,1.04009 4.2758,4.44619 1.72092,4.44619 -0.87981,0 -1.59964,-0.4042 -1.59964,-0.89814 0,-1.575 -3.90572,-1.98577 -5.78885,-0.60881 -1.6788,1.22758 -1.58611,1.41871 1.2237,2.52383 6.42529,2.52709 8.13414,3.69836 8.43576,5.78189 0.68524,4.73357 -8.158,7.21508 -12.00452,3.36858 z m 15.25106,-9.659 c 0,-9.71548 0.25785,-11.69248 1.52512,-11.69248 1.057,0 1.52508,1.06249 1.52508,3.46185 0,3.43157 0.0346,3.45721 3.92853,2.9349 3.297,-0.44224 4.19597,-0.14533 5.59206,1.84811 2.26328,3.23124 2.37214,15.14011 0.13833,15.14011 -1.18414,0 -1.52507,-1.3476 -1.52507,-6.02779 0,-6.54831 -1.76477,-9.63252 -4.85894,-8.49168 -2.72347,1.00416 -3.24266,2.3858 -3.25942,8.67324 -0.0114,4.5119 -0.36352,5.84623 -1.54065,5.84623 -1.26727,0 -1.52512,-1.977 -1.52512,-11.69249 z m 18.30126,3.05022 c 0,-7.00418 0.28898,-8.64228 1.52513,-8.64228 1.23603,0 1.52509,1.6381 1.52509,8.64228 0,7.0042 -0.28898,8.64227 -1.52509,8.64227 -1.23604,0 -1.52513,-1.63807 -1.52513,-8.64227 z m 7.69818,7.04455 c -3.47054,-3.47053 -0.22097,-8.55061 5.49145,-8.5852 1.41338,-0.008 3.25611,-0.47482 4.09492,-1.03609 1.32003,-0.88327 1.25974,-1.22293 -0.44854,-2.52625 -2.575,-1.96463 -3.21978,-1.9044 -5.6519,0.52769 -2.39144,2.39144 -4.06696,2.62461 -4.06696,0.56601 0,-4.40552 9.92418,-6.26717 12.65156,-2.37327 2.18921,3.12548 2.23485,15.02483 0.0577,15.02483 -0.83881,0 -1.52512,-0.47362 -1.52512,-1.05251 0,-0.7255 -0.61098,-0.7255 -1.96664,0 -2.8694,1.53566 -6.80398,1.28726 -8.63645,-0.54521 z m 9.70092,-3.70006 c 1.43439,-2.68019 0.65113,-3.20608 -3.59005,-2.41043 -4.29896,0.80648 -5.59056,2.47859 -3.24139,4.19633 2.21406,1.61895 5.4639,0.7694 6.83144,-1.7859 z m 8.01931,-3.34449 c 0,-7.00418 0.28898,-8.64228 1.52513,-8.64228 1.23603,0 1.52509,1.6381 1.52509,8.64228 0,7.0042 -0.28898,8.64227 -1.52509,8.64227 -1.23604,0 -1.52513,-1.63807 -1.52513,-8.64227 z M 26.900146,143.41517 c 0,-0.8388 0.686283,-1.52513 1.525086,-1.52513 0.838804,0 1.525124,0.68633 1.525124,1.52513 0,0.83881 -0.68632,1.52509 -1.525124,1.52509 -0.838803,0 -1.525086,-0.68628 -1.525086,-1.52509 z m 150.477064,0 c 0,-0.8388 0.68632,-1.52513 1.52513,-1.52513 0.83881,0 1.52509,0.68633 1.52509,1.52513 0,0.83881 -0.68628,1.52509 -1.52509,1.52509 -0.83881,0 -1.52513,-0.68628 -1.52513,-1.52509 z m 25.41841,0 c 0,-0.8388 0.68632,-1.52513 1.52513,-1.52513 0.83881,0 1.52509,0.68633 1.52509,1.52513 0,0.83881 -0.68628,1.52509 -1.52509,1.52509 -0.83881,0 -1.52513,-0.68628 -1.52513,-1.52509 z"
       id="path3757"
       inkscape:connector-curvature="0" />
  </g>
</svg>
