<?xml version="1.0" encoding="UTF-8" standalone="no"?>
<!-- Created with Inkscape (http://www.inkscape.org/) -->

<svg
   xmlns:dc="http://purl.org/dc/elements/1.1/"
   xmlns:cc="http://creativecommons.org/ns#"
   xmlns:rdf="http://www.w3.org/1999/02/22-rdf-syntax-ns#"
   xmlns:svg="http://www.w3.org/2000/svg"
   xmlns="http://www.w3.org/2000/svg"
   xmlns:sodipodi="http://sodipodi.sourceforge.net/DTD/sodipodi-0.dtd"
   xmlns:inkscape="http://www.inkscape.org/namespaces/inkscape"
   width="210mm"
   height="297mm"
   viewBox="0 0 210 297"
   version="1.1"
   id="svg8"
   inkscape:version="0.92.3 (2405546, 2018-03-11)"
   sodipodi:docname="Japanese.svg">
  <defs
     id="defs2" />
  <sodipodi:namedview
     id="base"
     pagecolor="#ffffff"
     bordercolor="#666666"
     borderopacity="1.0"
     inkscape:pageopacity="0.0"
     inkscape:pageshadow="2"
     inkscape:zoom="0.35"
     inkscape:cx="327.10381"
     inkscape:cy="948.15042"
     inkscape:document-units="mm"
     inkscape:current-layer="layer1"
     showgrid="false"
     inkscape:window-width="1920"
     inkscape:window-height="1017"
     inkscape:window-x="1912"
     inkscape:window-y="57"
     inkscape:window-maximized="1" />
  <metadata
     id="metadata5">
    <rdf:RDF>
      <cc:Work
         rdf:about="">
        <dc:format>image/svg+xml</dc:format>
        <dc:type
           rdf:resource="http://purl.org/dc/dcmitype/StillImage" />
        <dc:title></dc:title>
      </cc:Work>
    </rdf:RDF>
  </metadata>
  <g
     inkscape:label="Layer 1"
     inkscape:groupmode="layer"
     id="layer1">
    <path
       style="fill:#2f2f2f;stroke-width:0.87580729"
       d="m 55.952559,166.8822 v -4.37905 h -4.37901 c -2.408496,0 -4.37906,-0.3941 -4.37906,-0.8758 0,-0.48169 1.942229,-0.87579 4.316022,-0.87579 h 4.316022 l 0.573596,-4.59801 c 0.315454,-2.52888 0.442404,-5.97549 0.282054,-7.65917 l -0.291658,-3.06118 -2.954633,4.62028 c -4.371667,6.83614 -15.203654,16.01548 -14.949539,12.66864 0.0264,-0.36128 2.010417,-2.1505 4.406586,-3.97608 2.396169,-1.82558 6.159767,-5.76669 8.363522,-8.75805 l 4.006856,-5.43886 -7.975509,-0.2519 c -10.62779,-0.33559 -10.342816,-1.93773 0.344646,-1.93773 h 8.320171 v -4.81694 c 0,-3.69786 0.30519,-4.81691 1.313748,-4.81691 1.008492,0 1.313682,1.11905 1.313682,4.81691 v 4.81694 h 8.758103 c 5.254843,0 8.758055,0.35036 8.758055,0.87583 0,0.52264 -3.367532,0.8758 -8.350981,0.8758 -7.820125,0 -8.296458,0.10198 -7.493483,1.60227 1.713957,3.20253 9.245972,10.88724 13.437799,13.71017 2.634212,1.77399 3.909642,3.12983 3.299081,3.50715 -2.020202,1.24855 -11.42928,-6.86128 -16.133712,-13.90593 l -2.274862,-3.40649 v 7.56659 7.56657 h 4.37906 c 2.408447,0 4.379043,0.3941 4.379043,0.87583 0,0.48169 -1.970596,0.8758 -4.379043,0.8758 h -4.37906 v 4.37904 c 0,3.30859 -0.321081,4.37901 -1.313682,4.37901 -0.9926,0 -1.313748,-1.07042 -1.313748,-4.37901 z m 72.254131,-2.18678 v -6.56725 l 5.47377,-0.002 5.47381,-0.002 v 6.13062 c 0,3.50323 -0.37534,6.13065 -0.8758,6.13065 -0.48168,0 -0.87581,-0.39411 -0.87581,-0.87579 0,-0.48169 -1.57646,-0.8758 -3.50323,-0.8758 -2.5301,0 -3.50321,0.36491 -3.50321,1.31369 0,0.72254 -0.49266,1.31402 -1.09477,1.31442 -0.77855,5.3e-4 -1.09476,-1.89621 -1.09476,-6.56651 z m 9.19597,-1.31643 v -3.50327 h -3.50323 -3.50321 v 3.50327 3.50321 h 3.50321 3.50323 z m 39.41132,-0.4379 v -8.32021 h 12.2613 12.26132 v 8.32021 c 0,4.96288 -0.35343,8.32015 -0.87583,8.32015 -0.48168,0 -0.87579,-0.59119 -0.87579,-1.31373 0,-1.09158 -1.70296,-1.31368 -10.0718,-1.31368 -8.36882,0 -10.07178,0.2221 -10.07178,1.31368 0,0.72254 -0.59116,1.31373 -1.3137,1.31373 -1.07556,0 -1.31372,-1.50832 -1.31372,-8.32015 z m 22.771,-1.31374 v -5.25484 h -10.0718 -10.07178 v 5.25484 5.25485 h 10.07178 10.0718 z M 1.6525296,152.86928 V 135.35314 H 13.913809 26.175122 v 17.51614 c 0,11.09358 -0.321084,17.51613 -0.875797,17.51613 -0.481691,0 -0.875828,-0.78821 -0.875828,-1.75158 0,-1.65432 -0.583875,-1.75163 -10.509688,-1.75163 -9.9258115,0 -10.5096867,0.0974 -10.5096867,1.75163 0,0.96337 -0.3941045,1.75158 -0.8757972,1.75158 -0.5546797,0 -0.8757955,-6.42255 -0.8757955,-17.51613 z m 22.7709674,5.69275 v -6.56856 H 13.913809 3.4041223 v 6.56856 6.56854 H 13.913809 24.423497 Z m 0,-14.88873 v -6.56854 H 13.913809 3.4041223 v 6.56854 6.56857 H 13.913809 24.423497 Z m 134.998883,23.60618 c -1.7327,-2.20273 -4.50358,-12.32027 -4.50358,-16.44416 0,-1.16939 -0.24626,-3.35771 -0.54739,-4.86303 l -0.54736,-2.73689 h -6.02118 c -3.43026,0 -6.02117,-0.37686 -6.02117,-0.8758 0,-0.50046 2.62741,-0.87583 6.13064,-0.87583 h 6.13068 v -4.37901 c 0,-2.40848 0.3941,-4.37905 0.87578,-4.37905 0.48169,0 0.8758,1.97057 0.8758,4.37905 v 4.37901 h 4.37906 c 2.40844,0 4.37904,0.39415 4.37904,0.87583 0,0.4817 -1.99472,0.8758 -4.43271,0.8758 h -4.43271 l 0.55614,4.16008 c 1.75736,13.14556 3.72132,19.48672 6.03538,19.48672 0.8137,0 1.53895,-1.17391 1.89376,-3.06532 0.31644,-1.68591 0.95663,-3.06532 1.42299,-3.06532 0.49812,0 0.59579,1.17424 0.23667,2.84636 -1.35383,6.30591 -3.41466,7.4895 -6.40997,3.68156 z m -56.5262,-0.25522 c -0.29758,-0.48151 0.62423,-1.13143 2.04849,-1.44424 1.42428,-0.3128 4.246,-2.0387 6.27049,-3.83532 3.33229,-2.95711 3.71337,-3.71881 4.02364,-8.04161 0.20755,-2.88992 -0.10924,-5.62913 -0.80182,-6.93832 -1.52783,-2.88767 -6.51425,-6.15692 -9.39082,-6.15692 -2.1694,0 -2.38277,0.3663 -3.28654,5.6426 -2.591178,15.12715 -11.265039,23.05709 -15.487411,14.15913 -1.832128,-3.86097 -1.767473,-7.12426 0.228405,-11.51781 3.172493,-6.98423 10.435805,-10.71088 18.922826,-9.70887 6.81959,0.80512 11.57816,5.26778 12.43589,11.66254 0.6669,4.97206 -2.11183,10.90151 -6.43437,13.73013 -3.95387,2.58739 -7.76638,3.68203 -8.52861,2.44869 z m -6.929374,-9.77608 c 2.197599,-4.31186 5.216274,-15.49214 4.402554,-16.30588 -1.094727,-1.0947 -6.804087,1.67739 -9.292915,4.51202 -5.697511,6.48907 -5.274067,16.70272 0.663219,15.99823 1.628426,-0.19332 2.752713,-1.31146 4.227142,-4.20437 z m 45.149974,7.68746 c 0.19629,-0.58884 1.31294,-1.29493 2.48145,-1.56915 1.95342,-0.45834 2.14547,-0.97192 2.38357,-6.37376 l 0.25885,-5.87519 h -2.6674 c -1.46713,0 -2.66745,-0.39414 -2.66745,-0.87583 0,-0.49404 2.48144,-0.8758 5.69275,-0.8758 3.21129,0 5.69274,0.38176 5.69274,0.8758 0,0.48169 -0.98529,0.87583 -2.18953,0.87583 -2.09664,0 -2.18952,0.22707 -2.18952,5.35229 v 5.35233 l 3.15154,-0.59123 c 5.15065,-0.9663 2.68656,1.02157 -3.7187,2.99994 -6.76371,2.0891 -6.68694,2.08042 -6.2284,0.70477 z m -12.47219,-12.06652 c 0,-0.48655 2.3355,-0.87578 5.25484,-0.87578 2.91935,0 5.25484,0.38923 5.25484,0.87578 0,0.48656 -2.33549,0.87583 -5.25484,0.87583 -2.91934,0 -5.25484,-0.38927 -5.25484,-0.87583 z m 40.75816,-2.5738 c -0.29295,-0.47424 1.11346,-1.70216 3.12566,-2.7287 4.39464,-2.24199 11.48766,-8.71685 13.99715,-12.77724 1.8835,-3.04757 3.42552,-3.82724 3.42552,-1.73199 0,1.8786 11.41243,12.17408 15.5555,14.03306 2.04177,0.91611 3.71229,1.99992 3.71229,2.40846 0,2.76717 -9.6294,-2.90954 -15.52703,-9.15352 l -4.57944,-4.8483 -5.93024,5.83964 c -6.23233,6.1371 -12.8601,10.44611 -13.77941,8.95859 z m -40.75816,-2.68104 c 0,-0.48655 2.3355,-0.87579 5.25484,-0.87579 2.91935,0 5.25484,0.38924 5.25484,0.87579 0,0.48656 -2.33549,0.87583 -5.25484,0.87583 -2.91934,0 -5.25484,-0.38927 -5.25484,-0.87583 z m 51.67264,0 c 0,-0.52548 3.50321,-0.87579 8.75805,-0.87579 5.25485,0 8.75807,0.35031 8.75807,0.87579 0,0.52549 -3.50322,0.87583 -8.75807,0.87583 -5.25484,0 -8.75805,-0.35034 -8.75805,-0.87583 z m -54.30006,-6.13051 c 0,-0.51087 2.91934,-0.87578 7.00646,-0.87578 4.08711,0 7.00644,0.36491 7.00644,0.87578 0,0.51089 -2.91933,0.8758 -7.00644,0.8758 -4.08712,0 -7.00646,-0.36491 -7.00646,-0.8758 z m 34.1638,-4.36875 c -2.24024,-3.14612 -1.13035,-3.50811 1.65748,-0.54057 1.14578,1.21962 1.60416,2.32331 1.09546,2.63771 -0.4811,0.29725 -1.71991,-0.64637 -2.75294,-2.09714 z m -32.41218,-0.88609 c 0,-0.49403 2.48145,-0.87579 5.69274,-0.87579 3.21131,0 5.69274,0.38176 5.69274,0.87579 0,0.49403 -2.48143,0.87579 -5.69274,0.87579 -3.21129,0 -5.69274,-0.38176 -5.69274,-0.87579 z"
       id="path3736"
       inkscape:connector-curvature="0" />
  </g>
</svg>
